<?xml version="1.0" encoding="utf-8"?>
<!-- Generator: Adobe Illustrator 16.0.0, SVG Export Plug-In . SVG Version: 6.00 Build 0)  -->
<!DOCTYPE svg PUBLIC "-//W3C//DTD SVG 1.0//EN" "http://www.w3.org/TR/2001/REC-SVG-20010904/DTD/svg10.dtd">
<svg version="1.0" id="Layer_1" xmlns="http://www.w3.org/2000/svg" xmlns:xlink="http://www.w3.org/1999/xlink" x="0px" y="0px"
	 width="800px" height="800px" viewBox="0 0 800 800" enable-background="new 0 0 800 800" xml:space="preserve">
<g>
	<path id="F" fill="#B70000" d="M49.468,231.069v67.572v59.126v67.571v143.592h89.533V425.339h138.524v-67.571H139.001v-59.126
		h138.524v-67.572H139.001H49.468z"/>
	<path id="I" fill="#B70000" d="M294.418,231.069v337.861h126.697v-1.373c-47.299-7.073-70.95-49.307-59.125-99.985l59.125-236.503
		H294.418z"/>
	<path id="H" fill="#0D1365" d="M471.795,231.069l-42.232,236.503c-6.756,37.165-5.066,54.059,16.893,50.679
		c21.963-3.378,23.65-28.718,42.234-25.339c18.582,3.379,27.027,16.893,25.34,33.785c-1.689,16.894-15.205,42.233-76.02,42.233
		h109.805V433.786h118.252v135.145h84.465V231.069h-84.465v126.698H547.814V231.069H471.795z M438.01,568.931"/>
</g>
</svg>
